HIERARCHY
ROOT Hips
{
	OFFSET 0.000000 0.000000 0.000000
	CHANNELS 6 Xposition Yposition Zposition Xrotation Yrotation Zrotation
	JOINT LeftUpLeg_virtual
	{
		OFFSET 0.000000 0.000000 0.000000
		CHANNELS 3 Xrotation Yrotation Zrotation
		JOINT LeftUpLeg
		{
			OFFSET 13.026900 -6.336304 -1.092800
			CHANNELS 3 Xrotation Yrotation Zrotation
			JOINT LeftLeg
			{
				OFFSET 0.524474 -46.096886 9.782700
				CHANNELS 3 Xrotation Yrotation Zrotation
				JOINT LeftFoot
				{
					OFFSET -0.524474 -53.427422 -12.948200
					CHANNELS 3 Xrotation Yrotation Zrotation
					JOINT LeftToeBase
					{
						OFFSET 0.192200 -14.009700 16.364100
						CHANNELS 3 Xrotation Yrotation Zrotation
						JOINT LeftToe_End
						{
							OFFSET -1.784700 -0.561700 9.474800
							CHANNELS 3 Xrotation Yrotation Zrotation
							End Site
							{
								OFFSET 0 0 0
							}
						}
					}
				}
			}
		}
	}
	JOINT RightUpLeg_virtual
	{
		OFFSET 0.000000 0.000000 0.000000
		CHANNELS 3 Xrotation Yrotation Zrotation
		JOINT RightUpLeg
		{
			OFFSET -12.883000 -6.336304 -1.092800
			CHANNELS 3 Xrotation Yrotation Zrotation
			JOINT RightLeg
			{
				OFFSET -0.524587 -46.096825 9.782800
				CHANNELS 3 Xrotation Yrotation Zrotation
				JOINT RightFoot
				{
					OFFSET 0.524587 -53.427383 -12.948300
					CHANNELS 3 Xrotation Yrotation Zrotation
					JOINT RightToeBase
					{
						OFFSET -0.192200 -14.009700 16.364100
						CHANNELS 3 Xrotation Yrotation Zrotation
						JOINT RightToe_End
						{
							OFFSET 1.784700 -0.561700 9.474800
							CHANNELS 3 Xrotation Yrotation Zrotation
							End Site
							{
								OFFSET 0 0 0
							}
						}
					}
				}
			}
		}
	}
	JOINT Spine_virtual
	{
		OFFSET 0.000000 0.000000 0.000000
		CHANNELS 3 Xrotation Yrotation Zrotation
		JOINT Spine
		{
			OFFSET 0.072000 7.257294 -0.789700
			CHANNELS 3 Xrotation Yrotation Zrotation
			JOINT Spine1
			{
				OFFSET 0.000000 12.508769 -0.658067
				CHANNELS 3 Xrotation Yrotation Zrotation
				JOINT Spine1_split
				{
					OFFSET 0.000000 12.508769 -0.658067
					CHANNELS 3 Xrotation Yrotation Zrotation
					JOINT Spine2
					{
						OFFSET 0.000000 12.508769 -0.658067
						CHANNELS 3 Xrotation Yrotation Zrotation
						JOINT Neck_virtual
						{
							OFFSET 0.000000 0.000000 0.000000
							CHANNELS 3 Xrotation Yrotation Zrotation
							JOINT Neck
							{
								OFFSET 0.000000 14.033295 7.520400
								CHANNELS 3 Xrotation Yrotation Zrotation
								JOINT Head
								{
									OFFSET 0.000000 8.198502 5.703100
									CHANNELS 3 Xrotation Yrotation Zrotation
									JOINT HeadTop_End
									{
										OFFSET 0.000000 17.760803 13.332701
										CHANNELS 3 Xrotation Yrotation Zrotation
										End Site
										{
											OFFSET 0 0 0
										}
									}
								}
							}
						}
						JOINT LeftShoulder_virtual
						{
							OFFSET 0.000000 0.000000 0.000000
							CHANNELS 3 Xrotation Yrotation Zrotation
							JOINT LeftShoulder
							{
								OFFSET 6.292450 5.785301 -0.669000
								CHANNELS 3 Xrotation Yrotation Zrotation
								JOINT LeftShoulder_split
								{
									OFFSET 6.292450 5.785301 -0.669000
									CHANNELS 3 Xrotation Yrotation Zrotation
									JOINT LeftArm
									{
										OFFSET 13.907140 -6.093903 1.965100
										CHANNELS 3 Xrotation Yrotation Zrotation
										JOINT LeftForeArm
										{
											OFFSET 34.140198 0.000000 0.000000
											CHANNELS 3 Xrotation Yrotation Zrotation
											JOINT LeftHand
											{
												OFFSET 40.960209 0.000000 0.000000
												CHANNELS 3 Xrotation Yrotation Zrotation
												End Site
												{
													OFFSET 0 0 0
												}
											}
										}
									}
								}
							}
						}
						JOINT RightShoulder_virtual
						{
							OFFSET 0.000000 0.000000 0.000000
							CHANNELS 3 Xrotation Yrotation Zrotation
							JOINT RightShoulder
							{
								OFFSET -6.292450 5.785301 -0.669000
								CHANNELS 3 Xrotation Yrotation Zrotation
								JOINT RightShoulder_split
								{
									OFFSET -6.292450 5.785301 -0.669000
									CHANNELS 3 Xrotation Yrotation Zrotation
									JOINT RightArm
									{
										OFFSET -13.907140 -6.093903 1.965100
										CHANNELS 3 Xrotation Yrotation Zrotation
										JOINT RightForeArm
										{
											OFFSET -34.140198 0.000000 0.000000
											CHANNELS 3 Xrotation Yrotation Zrotation
											JOINT RightHand
											{
												OFFSET -40.960209 0.000000 0.000000
												CHANNELS 3 Xrotation Yrotation Zrotation
												End Site
												{
													OFFSET 0 0 0
												}
											}
										}
									}
								}
							}
						}
					}
				}
			}
		}
	}
}
MOTION
Frames: 4
Frame Time: 0.03333333
64.113281 107.770340 33.829739 0.000000 0.000000 0.000000 -10.738547 -56.798712 -11.464711 -13.631195 13.003942 5.051710 41.559420 -9.852350 1.623835 -23.638047 14.890431 4.486693 -3.382242 -0.000008 0.000000 0.000000 0.000000 0.000000 -10.738547 -56.798712 -11.464711 -15.391322 16.619696 -13.669883 43.846956 -5.442181 -8.449296 29.869599 1.796326 22.602783 -21.766211 -2.263259 11.288131 0.000000 0.000000 0.000000 -10.738547 -56.798712 -11.464711 9.613846 7.938368 -0.128260 2.662959 17.145947 -2.401211 0.000000 0.000000 0.000000 0.000000 0.000000 0.000000 3.209018 13.582543 -1.840705 -0.835036 -4.107088 0.327522 1.616709 -45.330142 4.399509 0.000000 0.000000 0.000000 3.209018 13.582543 -1.840705 -6.690961 -24.917013 -29.325755 0.000000 0.000000 0.000000 -17.150492 26.242816 -47.937741 -0.000001 -37.261407 -0.000008 0.000000 0.000000 0.000000 3.209018 13.582543 -1.840705 16.288821 -29.166714 21.993802 0.000000 0.000000 0.000000 17.892130 -24.268782 42.118717 -179.999991 66.114537 179.999991 0.000000 0.000000 0.000000 
63.818542 107.319817 36.304596 0.000000 0.000000 0.000000 -11.443376 -54.676067 -11.426363 -11.831249 13.094944 3.124752 42.037967 -10.101990 2.051617 -24.963035 13.680813 5.748484 -3.339836 0.000015 -0.000001 0.000000 0.000000 0.000000 -11.443376 -54.676067 -11.426363 -20.068414 19.133699 -9.391873 53.010591 -5.556691 -8.443227 22.639687 7.653049 17.197269 -7.906135 -0.265559 4.007680 0.000000 0.000000 0.000000 -11.443376 -54.676067 -11.426363 10.452287 5.656159 -0.616296 2.886334 16.500537 -2.402979 0.000000 0.000000 0.000000 0.000000 0.000000 0.000000 3.439225 13.460947 -1.993053 -0.825261 -4.058136 0.451981 1.734946 -45.565227 4.903152 0.000000 0.000000 0.000000 3.439225 13.460947 -1.993053 -7.018226 -26.326418 -29.169300 0.000000 0.000000 0.000000 -18.434947 23.003978 -47.374028 -0.000003 -36.923272 -0.000005 0.000000 0.000000 0.000000 3.439225 13.460947 -1.993053 16.511894 -29.414698 22.476727 0.000000 0.000000 0.000000 18.832100 -26.862746 43.040526 179.999964 65.978644 -179.999964 0.000000 0.000000 0.000000 
63.517044 107.289467 39.092716 0.000000 0.000000 0.000000 -11.037876 -51.531137 -10.962119 -10.250263 12.999036 2.155275 41.761296 -10.077942 2.062033 -25.733709 10.844081 6.814814 -3.162132 -0.000001 -0.000000 0.000000 0.000000 0.000000 -11.037876 -51.531137 -10.962119 -24.416137 19.963554 -5.085897 58.711596 -6.670043 -7.486117 16.587002 15.292119 14.069551 -4.580081 -0.000003 -0.000008 0.000000 0.000000 0.000000 -11.037876 -51.531137 -10.962119 10.818136 2.692179 -0.384723 3.054876 15.663584 -2.352307 0.000000 0.000000 0.000000 0.000000 0.000000 0.000000 3.615016 13.134276 -2.081373 -0.759836 -3.950820 0.589089 2.105232 -45.390015 5.394822 0.000000 0.000000 0.000000 3.615016 13.134276 -2.081373 -7.328478 -28.082437 -28.771110 0.000000 0.000000 0.000000 -18.947618 20.246122 -47.384478 0.000007 -37.580281 -0.000001 0.000000 0.000000 0.000000 3.615016 13.134276 -2.081373 16.552026 -29.563005 22.660652 0.000000 0.000000 0.000000 19.613153 -28.573967 43.849712 -179.999991 66.371475 -179.999991 0.000000 0.000000 0.000000 
63.212402 107.681122 42.205055 0.000000 0.000000 0.000000 -9.938917 -47.928954 -10.127359 -8.524659 12.756175 1.695165 40.439388 -10.134288 1.563841 -25.972774 7.326626 7.706502 -2.895717 0.000023 0.000003 0.000000 0.000000 0.000000 -9.938917 -47.928954 -10.127359 -28.236065 19.888497 -1.557211 60.509172 -8.029547 -6.107111 12.079047 20.432326 13.666572 -4.964475 0.000012 0.000003 0.000000 0.000000 0.000000 -9.938917 -47.928954 -10.127359 10.886208 -0.541695 0.154350 3.195167 14.763920 -2.286728 0.000000 0.000000 0.000000 0.000000 0.000000 0.000000 3.762183 12.720736 -2.143570 -0.710406 -3.835619 0.741273 2.753896 -45.097728 5.846698 0.000000 0.000000 0.000000 3.762183 12.720736 -2.143570 -7.598348 -30.007695 -28.209159 0.000000 0.000000 0.000000 -18.872561 17.780973 -47.791602 -0.000002 -39.372711 -0.000011 0.000000 0.000000 0.000000 3.762183 12.720736 -2.143570 16.551869 -29.456594 22.826199 0.000000 0.000000 0.000000 19.255367 -29.305077 43.890932 179.999978 67.122270 -179.999964 0.000000 0.000000 0.000000 
